<mxfile host="app.diagrams.net" modified="2022-10-23T12:07:07.322Z" agent="5.0 (Windows NT 10.0; Win64; x64) AppleWebKit/537.36 (KHTML, like Gecko) Chrome/106.0.0.0 Safari/537.36" etag="InXKtdz5ltsOlltnnIVb" version="20.5.1" type="github">
  <diagram id="aeBlYLx63qy2-iwcC33v" name="Page-1">
    <mxGraphModel dx="1483" dy="781" grid="1" gridSize="10" guides="1" tooltips="1" connect="1" arrows="1" fold="1" page="1" pageScale="1" pageWidth="850" pageHeight="1100" math="0" shadow="0">
      <root>
        <mxCell id="0" />
        <mxCell id="1" parent="0" />
        <mxCell id="FGvUIvy5IWt59V57QS9W-7" value="" style="edgeStyle=orthogonalEdgeStyle;rounded=0;orthogonalLoop=1;jettySize=auto;html=1;fontSize=22;" edge="1" parent="1" source="FGvUIvy5IWt59V57QS9W-3" target="FGvUIvy5IWt59V57QS9W-6">
          <mxGeometry relative="1" as="geometry" />
        </mxCell>
        <mxCell id="FGvUIvy5IWt59V57QS9W-3" value="&lt;font style=&quot;font-size: 14px;&quot;&gt;CetakHasil (nama, nim, fakultas, nilaiSatuSemester, semester)&lt;/font&gt;" style="rounded=0;whiteSpace=wrap;html=1;" vertex="1" parent="1">
          <mxGeometry x="320" y="82.69" width="240" height="64.62" as="geometry" />
        </mxCell>
        <mxCell id="FGvUIvy5IWt59V57QS9W-4" value="&lt;font style=&quot;font-size: 22px;&quot;&gt;function CetakHasil&lt;/font&gt;" style="text;html=1;strokeColor=none;fillColor=none;align=center;verticalAlign=middle;whiteSpace=wrap;rounded=0;" vertex="1" parent="1">
          <mxGeometry x="20" y="50" width="240" height="30" as="geometry" />
        </mxCell>
        <mxCell id="FGvUIvy5IWt59V57QS9W-6" value="&lt;div style=&quot;text-align: justify; font-size: 14px;&quot;&gt;&lt;span style=&quot;background-color: initial;&quot;&gt;&lt;font style=&quot;font-size: 14px;&quot;&gt;&lt;u&gt;output&lt;/u&gt; (nama)&lt;/font&gt;&lt;/span&gt;&lt;/div&gt;&lt;font style=&quot;font-size: 14px;&quot;&gt;&lt;div style=&quot;text-align: justify;&quot;&gt;&lt;span style=&quot;background-color: initial;&quot;&gt;&lt;u&gt;output&lt;/u&gt; (nim)&lt;/span&gt;&lt;/div&gt;&lt;div style=&quot;text-align: justify;&quot;&gt;&lt;span style=&quot;background-color: initial;&quot;&gt;&lt;u&gt;output&lt;/u&gt; (fakultas)&lt;/span&gt;&lt;/div&gt;&lt;div style=&quot;text-align: justify;&quot;&gt;&lt;span style=&quot;background-color: initial;&quot;&gt;&lt;u&gt;output&lt;/u&gt; (semester)&lt;/span&gt;&lt;/div&gt;&lt;div style=&quot;text-align: justify;&quot;&gt;&lt;span style=&quot;background-color: initial;&quot;&gt;&lt;u&gt;output&lt;/u&gt; (nilaiSatuSemester)&lt;/span&gt;&lt;/div&gt;&lt;/font&gt;" style="shape=parallelogram;perimeter=parallelogramPerimeter;whiteSpace=wrap;html=1;fixedSize=1;rounded=0;align=center;" vertex="1" parent="1">
          <mxGeometry x="310" y="260.76" width="260" height="129.24" as="geometry" />
        </mxCell>
      </root>
    </mxGraphModel>
  </diagram>
</mxfile>
